<mxfile host="app.diagrams.net" agent="Mozilla/5.0 (Windows NT 10.0; Win64; x64) AppleWebKit/537.36 (KHTML, like Gecko) Chrome/134.0.0.0 Safari/537.36 Edg/134.0.0.0" version="26.1.0">
  <diagram name="第 1 页" id="IiBpwiCUb0pAsuBbF-yA">
    <mxGraphModel dx="1263" dy="937" grid="1" gridSize="10" guides="1" tooltips="1" connect="1" arrows="1" fold="1" page="1" pageScale="1" pageWidth="827" pageHeight="1169" math="0" shadow="0">
      <root>
        <mxCell id="0" />
        <mxCell id="1" parent="0" />
        <mxCell id="6nDZSmWIB0FfNVac5v39-1" value="" style="whiteSpace=wrap;strokeWidth=2;fontSize=14;" vertex="1" parent="1">
          <mxGeometry x="1061" y="360" width="260" height="460" as="geometry" />
        </mxCell>
        <mxCell id="6nDZSmWIB0FfNVac5v39-2" value="" style="whiteSpace=wrap;strokeWidth=2;fontSize=14;" vertex="1" parent="1">
          <mxGeometry x="725" y="360" width="260" height="460" as="geometry" />
        </mxCell>
        <mxCell id="6nDZSmWIB0FfNVac5v39-3" value="" style="whiteSpace=wrap;strokeWidth=2;fontSize=14;" vertex="1" parent="1">
          <mxGeometry x="215" y="360" width="430" height="460" as="geometry" />
        </mxCell>
        <mxCell id="6nDZSmWIB0FfNVac5v39-63" style="edgeStyle=orthogonalEdgeStyle;rounded=0;orthogonalLoop=1;jettySize=auto;html=1;entryX=0;entryY=0.5;entryDx=0;entryDy=0;fontSize=14;" edge="1" parent="1" source="6nDZSmWIB0FfNVac5v39-4" target="6nDZSmWIB0FfNVac5v39-5">
          <mxGeometry relative="1" as="geometry">
            <Array as="points">
              <mxPoint x="307" y="516" />
            </Array>
          </mxGeometry>
        </mxCell>
        <mxCell id="6nDZSmWIB0FfNVac5v39-4" value="历史攻击数据集" style="whiteSpace=wrap;strokeWidth=2;fontSize=14;" vertex="1" parent="1">
          <mxGeometry x="235" y="385" width="180" height="54" as="geometry" />
        </mxCell>
        <mxCell id="6nDZSmWIB0FfNVac5v39-5" value="元任务构造器&#xa;（ATT&amp;CK TTPs分割）" style="whiteSpace=wrap;strokeWidth=2;fontSize=14;" vertex="1" parent="1">
          <mxGeometry x="327" y="489" width="180" height="54" as="geometry" />
        </mxCell>
        <mxCell id="6nDZSmWIB0FfNVac5v39-64" style="edgeStyle=orthogonalEdgeStyle;rounded=0;orthogonalLoop=1;jettySize=auto;html=1;entryX=1;entryY=0.5;entryDx=0;entryDy=0;fontSize=14;" edge="1" parent="1" source="6nDZSmWIB0FfNVac5v39-6" target="6nDZSmWIB0FfNVac5v39-5">
          <mxGeometry relative="1" as="geometry" />
        </mxCell>
        <mxCell id="6nDZSmWIB0FfNVac5v39-6" value="威胁情报知识图谱" style="whiteSpace=wrap;strokeWidth=2;fontSize=14;" vertex="1" parent="1">
          <mxGeometry x="445" y="385" width="180" height="54" as="geometry" />
        </mxCell>
        <mxCell id="6nDZSmWIB0FfNVac5v39-7" value="双层MAML优化器&#xa;（η=0.01, β=0.001）" style="whiteSpace=wrap;strokeWidth=2;fontSize=14;" vertex="1" parent="1">
          <mxGeometry x="327" y="616" width="180" height="54" as="geometry" />
        </mxCell>
        <mxCell id="6nDZSmWIB0FfNVac5v39-70" style="edgeStyle=orthogonalEdgeStyle;rounded=0;orthogonalLoop=1;jettySize=auto;html=1;entryX=0;entryY=0.5;entryDx=0;entryDy=0;shape=flexArrow;fontSize=14;" edge="1" parent="1" source="6nDZSmWIB0FfNVac5v39-8" target="6nDZSmWIB0FfNVac5v39-9">
          <mxGeometry relative="1" as="geometry">
            <Array as="points">
              <mxPoint x="590" y="767" />
              <mxPoint x="590" y="548" />
            </Array>
          </mxGeometry>
        </mxCell>
        <mxCell id="6nDZSmWIB0FfNVac5v39-8" value="元知识库" style="whiteSpace=wrap;strokeWidth=2;fontSize=14;" vertex="1" parent="1">
          <mxGeometry x="327" y="740" width="180" height="54" as="geometry" />
        </mxCell>
        <mxCell id="6nDZSmWIB0FfNVac5v39-9" value="元对抗训练引擎&#xa;（Fisher信息矩阵筛选）" style="whiteSpace=wrap;strokeWidth=2;fontSize=14;" vertex="1" parent="1">
          <mxGeometry x="757" y="521" width="180" height="54" as="geometry" />
        </mxCell>
        <mxCell id="6nDZSmWIB0FfNVac5v39-65" style="edgeStyle=orthogonalEdgeStyle;rounded=0;orthogonalLoop=1;jettySize=auto;html=1;entryX=0.75;entryY=0;entryDx=0;entryDy=0;exitX=0.75;exitY=1;exitDx=0;exitDy=0;fontSize=14;" edge="1" parent="1" source="6nDZSmWIB0FfNVac5v39-10" target="6nDZSmWIB0FfNVac5v39-9">
          <mxGeometry relative="1" as="geometry" />
        </mxCell>
        <mxCell id="6nDZSmWIB0FfNVac5v39-66" value="GAN合成数据" style="edgeLabel;html=1;align=center;verticalAlign=middle;resizable=0;points=[];fontSize=14;" vertex="1" connectable="0" parent="6nDZSmWIB0FfNVac5v39-65">
          <mxGeometry x="-0.2797" y="-1" relative="1" as="geometry">
            <mxPoint as="offset" />
          </mxGeometry>
        </mxCell>
        <mxCell id="6nDZSmWIB0FfNVac5v39-10" value="对抗样本生成器" style="whiteSpace=wrap;strokeWidth=2;fontSize=14;" vertex="1" parent="1">
          <mxGeometry x="757" y="380" width="180" height="54" as="geometry" />
        </mxCell>
        <mxCell id="6nDZSmWIB0FfNVac5v39-11" value="语义不变特征提取器&#xa;（Smith-Waterman算法）" style="whiteSpace=wrap;strokeWidth=2;fontSize=14;" vertex="1" parent="1">
          <mxGeometry x="757" y="619" width="180" height="54" as="geometry" />
        </mxCell>
        <mxCell id="6nDZSmWIB0FfNVac5v39-71" style="edgeStyle=orthogonalEdgeStyle;rounded=0;orthogonalLoop=1;jettySize=auto;html=1;entryX=0;entryY=0.5;entryDx=0;entryDy=0;shape=flexArrow;fontSize=14;" edge="1" parent="1" source="6nDZSmWIB0FfNVac5v39-12" target="6nDZSmWIB0FfNVac5v39-14">
          <mxGeometry relative="1" as="geometry" />
        </mxCell>
        <mxCell id="6nDZSmWIB0FfNVac5v39-12" value="鲁棒检测模型" style="whiteSpace=wrap;strokeWidth=2;fontSize=14;" vertex="1" parent="1">
          <mxGeometry x="757" y="728" width="180" height="54" as="geometry" />
        </mxCell>
        <mxCell id="6nDZSmWIB0FfNVac5v39-13" value="新型攻击样本" style="whiteSpace=wrap;strokeWidth=2;fontSize=14;" vertex="1" parent="1">
          <mxGeometry x="1103" y="388" width="180" height="54" as="geometry" />
        </mxCell>
        <mxCell id="6nDZSmWIB0FfNVac5v39-69" style="edgeStyle=orthogonalEdgeStyle;rounded=0;orthogonalLoop=1;jettySize=auto;html=1;entryX=0.5;entryY=0;entryDx=0;entryDy=0;fontSize=14;" edge="1" parent="1" source="6nDZSmWIB0FfNVac5v39-14" target="6nDZSmWIB0FfNVac5v39-15">
          <mxGeometry relative="1" as="geometry" />
        </mxCell>
        <mxCell id="6nDZSmWIB0FfNVac5v39-74" style="edgeStyle=orthogonalEdgeStyle;rounded=0;orthogonalLoop=1;jettySize=auto;html=1;shape=flexArrow;fontSize=14;" edge="1" parent="1" source="6nDZSmWIB0FfNVac5v39-14" target="6nDZSmWIB0FfNVac5v39-8">
          <mxGeometry relative="1" as="geometry">
            <Array as="points">
              <mxPoint x="1350" y="515" />
              <mxPoint x="1350" y="850" />
              <mxPoint x="412" y="850" />
            </Array>
          </mxGeometry>
        </mxCell>
        <mxCell id="6nDZSmWIB0FfNVac5v39-75" value="全局更新" style="edgeLabel;html=1;align=center;verticalAlign=middle;resizable=0;points=[];fontSize=16;" vertex="1" connectable="0" parent="6nDZSmWIB0FfNVac5v39-74">
          <mxGeometry x="0.2197" y="-1" relative="1" as="geometry">
            <mxPoint as="offset" />
          </mxGeometry>
        </mxCell>
        <mxCell id="6nDZSmWIB0FfNVac5v39-14" value="边缘端增量学习模块&#xa;（知识蒸馏压缩）" style="whiteSpace=wrap;strokeWidth=2;fontSize=14;" vertex="1" parent="1">
          <mxGeometry x="1103" y="488" width="180" height="54" as="geometry" />
        </mxCell>
        <mxCell id="6nDZSmWIB0FfNVac5v39-15" value="云端联邦进化系统&#xa;（Δt=24小时重训练）" style="whiteSpace=wrap;strokeWidth=2;fontSize=14;" vertex="1" parent="1">
          <mxGeometry x="1103" y="590" width="180" height="54" as="geometry" />
        </mxCell>
        <mxCell id="6nDZSmWIB0FfNVac5v39-16" value="持续进化检测系统" style="whiteSpace=wrap;strokeWidth=2;fontSize=14;" vertex="1" parent="1">
          <mxGeometry x="1103" y="736" width="180" height="54" as="geometry" />
        </mxCell>
        <mxCell id="6nDZSmWIB0FfNVac5v39-17" value="" style="whiteSpace=wrap;strokeWidth=2;fontSize=14;" vertex="1" parent="1">
          <mxGeometry x="278" y="643" as="geometry" />
        </mxCell>
        <mxCell id="6nDZSmWIB0FfNVac5v39-18" value="" style="whiteSpace=wrap;strokeWidth=2;fontSize=14;" vertex="1" parent="1">
          <mxGeometry x="226" y="794" as="geometry" />
        </mxCell>
        <mxCell id="6nDZSmWIB0FfNVac5v39-19" value="" style="whiteSpace=wrap;strokeWidth=2;fontSize=14;" vertex="1" parent="1">
          <mxGeometry x="462" y="794" as="geometry" />
        </mxCell>
        <mxCell id="6nDZSmWIB0FfNVac5v39-21" value="" style="whiteSpace=wrap;strokeWidth=2;fontSize=14;" vertex="1" parent="1">
          <mxGeometry x="716" y="673" as="geometry" />
        </mxCell>
        <mxCell id="6nDZSmWIB0FfNVac5v39-22" value="" style="whiteSpace=wrap;strokeWidth=2;fontSize=14;" vertex="1" parent="1">
          <mxGeometry x="675" y="824" as="geometry" />
        </mxCell>
        <mxCell id="6nDZSmWIB0FfNVac5v39-23" value="" style="whiteSpace=wrap;strokeWidth=2;fontSize=14;" vertex="1" parent="1">
          <mxGeometry x="905" y="824" as="geometry" />
        </mxCell>
        <mxCell id="6nDZSmWIB0FfNVac5v39-25" value="" style="whiteSpace=wrap;strokeWidth=2;fontSize=14;" vertex="1" parent="1">
          <mxGeometry x="1052" y="691" as="geometry" />
        </mxCell>
        <mxCell id="6nDZSmWIB0FfNVac5v39-26" value="" style="whiteSpace=wrap;strokeWidth=2;fontSize=14;" vertex="1" parent="1">
          <mxGeometry x="1040" y="817" as="geometry" />
        </mxCell>
        <mxCell id="6nDZSmWIB0FfNVac5v39-27" value="" style="whiteSpace=wrap;strokeWidth=2;fontSize=14;" vertex="1" parent="1">
          <mxGeometry x="1205" y="817" as="geometry" />
        </mxCell>
        <mxCell id="6nDZSmWIB0FfNVac5v39-31" value="任务支持集/查询集" style="startArrow=none;endArrow=block;exitX=0.5;exitY=1;entryX=0.5;entryY=-0.01;rounded=0;exitDx=0;exitDy=0;fontSize=14;" edge="1" parent="1" source="6nDZSmWIB0FfNVac5v39-5" target="6nDZSmWIB0FfNVac5v39-7">
          <mxGeometry relative="1" as="geometry" />
        </mxCell>
        <mxCell id="6nDZSmWIB0FfNVac5v39-32" value="全局参数θ_meta" style="startArrow=none;endArrow=block;exitX=0.5;exitY=1;entryX=0.5;entryY=0.01;rounded=0;exitDx=0;exitDy=0;fontSize=14;" edge="1" parent="1" source="6nDZSmWIB0FfNVac5v39-7" target="6nDZSmWIB0FfNVac5v39-8">
          <mxGeometry relative="1" as="geometry" />
        </mxCell>
        <mxCell id="6nDZSmWIB0FfNVac5v39-41" value="参数θ_robust" style="startArrow=none;endArrow=block;exitX=0.5;exitY=1;entryX=0.5;entryY=-0.01;rounded=0;exitDx=0;exitDy=0;fontSize=14;" edge="1" parent="1" source="6nDZSmWIB0FfNVac5v39-9" target="6nDZSmWIB0FfNVac5v39-11">
          <mxGeometry relative="1" as="geometry" />
        </mxCell>
        <mxCell id="6nDZSmWIB0FfNVac5v39-42" value="d维特征向量" style="startArrow=none;endArrow=block;exitX=0.5;exitY=1;entryX=0.5;entryY=0.01;rounded=0;exitDx=0;exitDy=0;fontSize=14;" edge="1" parent="1" source="6nDZSmWIB0FfNVac5v39-11" target="6nDZSmWIB0FfNVac5v39-12">
          <mxGeometry relative="1" as="geometry" />
        </mxCell>
        <mxCell id="6nDZSmWIB0FfNVac5v39-49" value="" style="curved=1;startArrow=none;endArrow=block;exitX=0.5;exitY=1.01;entryX=0.5;entryY=0;rounded=0;fontSize=14;" edge="1" parent="1" source="6nDZSmWIB0FfNVac5v39-13" target="6nDZSmWIB0FfNVac5v39-14">
          <mxGeometry relative="1" as="geometry">
            <Array as="points" />
          </mxGeometry>
        </mxCell>
        <mxCell id="6nDZSmWIB0FfNVac5v39-52" value="加密特征/版本v2.0" style="startArrow=none;endArrow=block;entryX=0.5;entryY=0.01;rounded=0;fontSize=14;" edge="1" parent="1" target="6nDZSmWIB0FfNVac5v39-16">
          <mxGeometry relative="1" as="geometry">
            <mxPoint x="1193" y="649" as="sourcePoint" />
          </mxGeometry>
        </mxCell>
        <mxCell id="6nDZSmWIB0FfNVac5v39-60" value="对抗样本注入" style="startArrow=none;endArrow=block;exitX=0.25;exitY=1;entryX=0.25;entryY=0;rounded=0;exitDx=0;exitDy=0;entryDx=0;entryDy=0;fontSize=14;" edge="1" parent="1" source="6nDZSmWIB0FfNVac5v39-10" target="6nDZSmWIB0FfNVac5v39-9">
          <mxGeometry relative="1" as="geometry" />
        </mxCell>
      </root>
    </mxGraphModel>
  </diagram>
</mxfile>
